<?xml version="1.0" encoding="UTF-8" ?>
<!DOCTYPE svg PUBLIC "-//W3C//DTD SVG 1.1//EN" "http://www.w3.org/Graphics/SVG/1.1/DTD/svg11.dtd">
<svg viewBox="0 0 474 511"><path d="M 202.04 2.14 C 205.95 0.43 210.36 0.55 214.46 1.43 C 292.96 19.23 371.46 37.02 449.97 54.81 C 454.29 55.84 458.75 56.50 462.87 58.25 C 469.61 61.17 473.91 68.69 473.13 75.97 C 472.85 80.12 470.76 83.88 468.16 87.03 C 410.04 155.64 351.93 224.27 293.83 292.90 C 290.29 296.95 287.09 301.75 281.95 303.90 C 277.77 305.75 273.01 305.53 268.70 304.29 C 201.66 284.04 134.59 263.84 67.55 243.58 C 61.59 241.65 54.93 242.58 49.44 245.45 C 43.85 248.60 41.44 255.13 40.62 261.17 C 39.64 269.45 40.10 277.95 42.15 286.05 C 43.46 290.73 45.32 295.73 49.42 298.67 C 52.59 300.61 56.35 301.17 59.83 302.34 C 133.53 324.92 207.21 347.54 280.91 370.12 C 331.04 308.18 381.22 246.29 431.31 184.32 C 429.27 173.28 430.11 161.85 433.00 151.05 C 434.32 145.93 435.79 140.48 439.77 136.73 C 445.73 130.44 456.03 129.11 463.44 133.59 C 470.18 137.36 474.07 145.48 472.88 153.10 C 471.88 160.39 468.55 167.50 469.82 174.98 C 470.89 179.18 472.62 183.17 474.00 187.27 L 474.00 188.71 C 472.57 193.29 471.17 197.88 469.51 202.38 C 462.12 224.03 460.73 247.96 467.15 270.02 C 468.38 274.48 470.61 278.58 471.90 283.03 C 472.49 284.80 472.81 286.74 474.00 288.25 L 474.00 289.71 C 472.25 294.49 471.08 299.66 467.53 303.56 C 412.86 370.19 358.16 436.80 303.48 503.42 C 299.98 507.58 294.93 510.23 289.57 511.00 L 287.35 511.00 C 284.21 510.63 281.10 509.97 278.09 509.02 C 259.70 503.08 241.28 497.24 222.88 491.33 C 165.98 473.15 109.08 454.94 52.18 436.75 C 46.82 435.02 41.30 433.55 36.35 430.79 C 25.32 424.87 16.70 415.18 10.65 404.35 C 1.98 387.83 -0.74 368.49 1.62 350.08 C 3.13 338.75 7.97 328.24 13.80 318.53 C 11.87 314.13 8.90 310.24 7.25 305.69 C 0.06 288.43 0.35 269.35 1.15 251.01 C 2.39 236.92 6.56 222.99 13.78 210.79 C 18.00 203.60 23.97 197.72 29.46 191.52 C 82.92 132.00 136.40 72.50 189.86 12.97 C 193.54 9.00 196.89 4.31 202.04 2.14 M 198.48 68.78 C 194.37 69.56 190.54 71.68 187.85 74.90 C 183.99 79.40 180.23 83.98 176.37 88.48 C 174.63 90.50 172.69 93.24 174.04 95.99 C 175.84 99.28 179.65 100.50 183.04 101.40 C 224.04 111.38 265.04 121.37 306.04 131.35 C 313.32 133.13 321.99 132.06 327.29 126.32 C 331.25 121.90 334.92 117.23 338.83 112.77 C 340.61 110.61 342.95 108.07 342.07 105.02 C 340.54 101.39 336.54 99.99 333.02 99.09 C 292.37 89.18 251.71 79.30 211.06 69.37 C 206.96 68.35 202.65 67.88 198.48 68.78 M 303.65 404.60 C 298.30 411.28 288.96 414.03 280.82 411.29 C 202.93 387.47 125.09 363.47 47.19 339.70 C 42.99 345.97 40.24 353.29 40.21 360.90 C 40.08 372.32 42.41 384.83 50.96 393.07 C 54.36 396.69 59.37 397.69 63.90 399.17 C 136.29 422.31 208.67 445.48 281.06 468.62 C 331.02 407.76 381.01 346.91 430.94 286.03 C 427.60 276.06 425.22 265.69 424.54 255.18 C 384.36 305.07 343.93 354.78 303.65 404.60 Z" /></svg>
